<svg width="200" height="230" viewBox="0 0 200 230" fill="none" xmlns="http://www.w3.org/2000/svg">
<circle cx="95.9523" cy="126.752" r="87.6601" fill="#F1F1FD" fill-opacity="0.71"/>
<rect x="30.2278" y="47.8035" width="106.439" height="145.764" rx="4" transform="rotate(-15 30.2278 47.8035)" fill="white"/>
<path d="M39.6841 74.6295L34.5607 55.3769C33.9854 53.2151 33.6978 52.1343 33.8984 51.1962C34.0749 50.371 34.5078 49.6227 35.1352 49.0584C35.8485 48.417 36.9289 48.1276 39.0898 47.5489L125.15 24.5009C127.318 23.9202 128.402 23.6298 129.343 23.8305C130.17 24.0071 130.921 24.4415 131.486 25.0711C132.128 25.787 132.416 26.872 132.991 29.0418L140.804 58.4879M158.144 123.79L166.501 153.405C167.118 155.593 167.427 156.686 167.233 157.638C167.063 158.474 166.629 159.234 165.996 159.806C165.276 160.457 164.177 160.748 161.979 161.33L75.5162 184.218C73.3308 184.796 72.238 185.086 71.2937 184.879C70.4631 184.697 69.7121 184.256 69.1495 183.618C68.51 182.893 68.2317 181.797 67.6753 179.606L65.0894 169.423" stroke="#30446D" stroke-width="4" stroke-linecap="round"/>
<circle cx="44.0708" cy="55.7376" r="3.55379" transform="rotate(15 44.0708 55.7376)" fill="#FC605C"/>
<circle cx="53.3069" cy="53.3068" r="3.55379" transform="rotate(15 53.3069 53.3068)" fill="#FCBB40"/>
<circle cx="62.5427" cy="50.876" r="3.55379" transform="rotate(15 62.5427 50.876)" fill="#34C648"/>
<rect y="102.973" width="106.439" height="145.764" rx="4" transform="rotate(-30 0 102.973)" fill="white"/>
<path d="M56.2682 195.458L6.17664 109.19C5.05126 107.251 4.48857 106.282 4.43607 105.323C4.38989 104.479 4.61208 103.643 5.07078 102.933C5.59225 102.126 6.5616 101.564 8.50029 100.44L86.2012 55.373C88.1607 54.2365 89.1405 53.6682 90.1074 53.6192C90.9578 53.5761 91.7997 53.8055 92.5107 54.274C93.3191 54.8066 93.8753 55.7933 94.9876 57.7668L110.167 84.6986M121.421 104.837L159.064 169.757C160.192 171.703 160.757 172.676 160.807 173.638C160.852 174.485 160.627 175.323 160.164 176.033C159.638 176.84 158.662 177.4 156.71 178.519L79.0534 223.042C77.0921 224.167 76.1115 224.729 75.1458 224.774C74.2965 224.813 73.4567 224.581 72.7484 224.111C71.943 223.576 71.3907 222.59 70.2861 220.617L65.1527 211.45" stroke="#30446D" stroke-width="4" stroke-linecap="round"/>
<circle cx="15.3997" cy="106.614" r="3.55379" fill="#FC605C"/>
<circle cx="23.692" cy="101.875" r="3.55379" fill="#FCBB40"/>
<circle cx="31.984" cy="97.1369" r="3.55379" fill="#34C648"/>
<path d="M52.1222 152.813C55.3934 152.813 58.0452 150.161 58.0452 146.89C58.0452 143.619 55.3934 140.967 52.1222 140.967C48.851 140.967 46.1992 143.619 46.1992 146.89C46.1992 150.161 48.851 152.813 52.1222 152.813Z" stroke="#5857EA" stroke-width="3" stroke-miterlimit="10" stroke-linecap="round" stroke-linejoin="round"/>
<path d="M65.153 176.505C68.4241 176.505 71.0759 173.853 71.0759 170.582C71.0759 167.311 68.4241 164.659 65.153 164.659C61.8818 164.659 59.23 167.311 59.23 170.582C59.23 173.853 61.8818 176.505 65.153 176.505Z" stroke="#5857EA" stroke-width="3" stroke-miterlimit="10" stroke-linecap="round" stroke-linejoin="round"/>
<path d="M28.4304 121.125L59.7201 103.06" stroke="#30446D" stroke-width="4" stroke-linecap="round"/>
<path d="M65.1528 134.155L96.4425 116.09" stroke="#30446D" stroke-width="4" stroke-linecap="round"/>
<path d="M84.1064 167.324L115.396 149.259" stroke="#30446D" stroke-width="4" stroke-linecap="round"/>
<path d="M34.3535 130.602L54.8713 118.756" stroke="#30446D" stroke-width="4" stroke-linecap="round"/>
<path d="M69.8911 142.151L90.4089 130.305" stroke="#30446D" stroke-width="4" stroke-linecap="round"/>
<path d="M79.3682 158.736L99.886 146.89" stroke="#30446D" stroke-width="4" stroke-linecap="round"/>
</svg>
